<svg xmlns="http://www.w3.org/2000/svg" viewBox="0 0 147.648 34.886"><defs><style>.cls-1{fill:#c6011f}</style></defs><g id="Layer_2" data-name="Layer 2"><g id="Layer_1-2" data-name="Layer 1"><path class="cls-1" d="M37.322 0L6.353.062 4.501 10.073l31.211.005L37.322 0zM48.134.146c-4.748 0-8.731 3.833-9.28 6.65-.283 1.54-.616 3.282-.616 3.282l71.128-.01a13.164 13.164 0 0 0 .62-3.452c.1-3.585-3.221-6.409-6.734-6.465-3.45-.042-49.37 0-55.118 0M140.208.052c-6.43-.052-26.389 0-26.389 0l-1.677 10.1 35.183.048c0-.048.05-.4.183-1.6.953-6.655-3.109-8.54-7.3-8.55M64.236 12.926c-2.06-.037-20.6-.037-26.718 0-1.148 5.754 1.927 8.055 5.223 8.163 2.306.1 16.747.083 16.747.083l-.6 4.172H35.9L34.284 34.8s25.42.081 26.065.044a8.969 8.969 0 0 0 8.64-4.509c1.178-1.937 2.064-6.89 2.347-9.42.516-5.693-2.909-7.943-7.1-7.988M108.837 13.043L75.2 13.1l-3.783 21.78h11.79l2.583-13.707h16.3c3.621 0 5.34-2.4 5.955-4.911.3-1.242.791-3.219.791-3.219M107.335 34.8h12.015l4.17-21.699h-12.153L107.335 34.8zM130.857 34.886h11.811l3.812-21.731h-11.778l-3.845 21.731zM33.514 21.266l1.507-8.34-31.307-.037L0 34.881h31.167l1.607-9.536-19.448-.019.811-4.06h19.377z"/></g></g></svg>