<svg xmlns="http://www.w3.org/2000/svg" viewBox="0 0 121.881 52.334"><defs><style>.cls-1{fill:#002e56}</style></defs><g id="Layer_2" data-name="Layer 2"><g id="Layer_1-2" data-name="Layer 1"><path class="cls-1" d="M117.405 50.171h.727v2.163h.317v-2.163h.752v-.274h-1.796v.274zM121.334 49.9l-.423 1.177q-.173.473-.268.819h-.006a9.746 9.746 0 0 0-.254-.819l-.4-1.177h-.405l-.171 2.437h.286l.079-1.045c.021-.358.039-.765.039-1.075h.014c.074.293.169.607.272.952l.408 1.159h.229l.43-1.19c.13-.338.223-.637.311-.921 0 .3.027.717.043 1.046l.061 1.074h.3l-.142-2.437zM14.117 13.59h16.745L29.949 0H0v49.707h14V33.621h13.764V20.069H14.117V13.59zM114.407.074H99.404L93.175 10.77 87.083.074H71.555L85.442 24.01 70.745 49.662l15.055-.007 7.208-12.543 7.26 12.543h15.479l-14.944-25.812L114.407.074z"/><path class="cls-1" d="M77.856 24.935c0-13.363-10.6-24.2-23.674-24.2a23.935 23.935 0 0 0-23.691 24.2 23.687 23.687 0 1 0 47.365 0zm-19.437 9.924a4.143 4.143 0 0 1-4.166 4.032 4.084 4.084 0 0 1-4.032-4.114V15a4.236 4.236 0 0 1 4.032-4.3 4.356 4.356 0 0 1 4.166 4.3z"/></g></g></svg>