<svg xmlns="http://www.w3.org/2000/svg" viewBox="0 0 117.915 62.345"><defs><style>.cls-2{fill:#fff}</style></defs><g id="Layer_2" data-name="Layer 2"><g id="Layer_1-2" data-name="Layer 1"><path fill="#002e56" d="M0 0h117.915v62.345H0z"/><path class="cls-2" d="M113.119 51.946h-.41v-1.755h-.005l-.392 1.755h-.431l-.383-1.755h-.007v1.755h-.407v-2.101h.64l.378 1.657h.008l.376-1.657h.633v2.101zM110.208 51.946h-.439v-1.73h-.637v-.371h1.711v.371h-.635v1.73zM91.999 26.836v25.135h15.507V10.398H92.398l-8.829 8.788v5.081h10.988l-2.558 2.569zM23.853 51.971V37.859l-2.223-2.24h16.271v-8.966H23.853v-7.375h14.201l8.861-8.888H10.143v41.581h13.71zM43.962 30.459l5.138 5.199H63l.906.907v5.198l-1.208 1.209H49.699l-7.204 7.227v1.772h29.168l5.916-5.916V31.789l-5.139-5.138H58.537l-.907-.967v-5.199l1.151-1.207h15.231l3.445-3.266v-5.623H53.216l-9.254 9.284v10.786z"/></g></g></svg>