<svg xmlns="http://www.w3.org/2000/svg" viewBox="0 0 76.457 78.861"><defs><style>.cls-1{fill:#c00}.cls-2{fill:#fff}.cls-4{fill:#171648}</style></defs><g id="Layer_2" data-name="Layer 2"><g id="Layer_1-2" data-name="Layer 1"><path class="cls-1" d="M76.457 40.851l-38.664 38.01L0 40.851V0h76.457v40.851z"/><path class="cls-2" d="M74.973 40.586L37.809 77.12 1.486 40.586V1.321h73.487v39.265z"/><path fill="#171548" d="M73.05 40.094l-35.218 34.62-34.421-34.62V2.888H73.05v37.206z"/><path class="cls-2" d="M50.374 60.1L37.738 72.522 25.384 60.1h24.99z"/><path class="cls-1" d="M48.099 60.985L37.834 71.076 27.8 60.985h20.299z"/><path class="cls-2" d="M30.348 24.726h-8.024l.029-10.149-4.013 7.609-3.972-7.609-.018 10.149H6.34l.016-18.963h8.012l3.981 7.629 4.007-7.629h8zM49.173 24.726H31.92l-.043-18.943 8.07-.021v14.9h9.24zM70.564 19.719q-.015 5.006-5.264 5.007H50.743l.018-18.963h14.556q4.268 0 5.055 2.98a5.582 5.582 0 0 1 .174 1.5q.006 4.475-3.845 4.477a3.387 3.387 0 0 1 3.6 2.768 9.255 9.255 0 0 1 .263 2.231zm-8.035-1.372a2.974 2.974 0 0 0-.092-.792c-.271-1.015-1.109-1.523-2.523-1.523h-1.15l.006 4.632h1.15q2.619 0 2.609-2.317zm.016-6.723a2.305 2.305 0 0 0-.065-.5q-.338-1.285-2.552-1.283h-1.154l-.01 3.573h1.152q2.619-.002 2.629-1.79zM14.022 31.9h-2.279l-2.5-2.378a8.6 8.6 0 0 1-.969-1.113 2.382 2.382 0 0 1 .219.886V31.9H6.217v-5.386h2.648l2.128 1.972a7.7 7.7 0 0 1 .963 1.033 4.785 4.785 0 0 1-.213-1.412v-1.593h2.279zM22.483 30.612V31.9h-6.868v-5.386h6.869v1.24h-4.12v.782H21.7v1.2h-3.337v.879zM28.169 27.8v4.1h-2.654v-4.1h-1.894v-1.286h6.44V27.8zM43.173 26.514L40.751 31.9H38.4l-1.277-2.969-1.212 2.969h-2.453l-2.427-5.383h2.64l1.277 3.1 1.246-3.1h2.2l1.357 3.1 1.279-3.1zM47.789 31.98a5.9 5.9 0 0 1-3.142-.753 2.285 2.285 0 0 1-1.213-2.015 2.34 2.34 0 0 1 1.16-1.993 5.69 5.69 0 0 1 3.224-.787 5.833 5.833 0 0 1 3.105.742 2.243 2.243 0 0 1 1.2 1.979 2.346 2.346 0 0 1-1.209 2.056 5.733 5.733 0 0 1-3.125.771zm-.014-1.224a1.274 1.274 0 0 0 1.021-.364 2.111 2.111 0 0 0 .312-1.334c0-.936-.428-1.4-1.279-1.4q-1.377 0-1.377 1.6c-.001.999.442 1.498 1.323 1.498zM61.432 31.9h-3.105l-1.334-2.058h-.883V31.9h-2.8v-5.386h4.77a5.606 5.606 0 0 1 2.449.434A1.306 1.306 0 0 1 61.4 28.1a1.2 1.2 0 0 1-.322.823 2.848 2.848 0 0 1-1.3.628zm-5.323-3.21h1.2a2.3 2.3 0 0 0 .851-.13c.215-.086.32-.214.32-.384 0-.342-.357-.516-1.076-.516h-1.295zM70.992 31.9h-3.068l-1.576-2.033-.947.791V31.9h-2.642v-5.386H65.4v2.226l2.517-2.226h2.519l-2.306 1.97zM24.211 57.982l-.854-.757-1.208-1.466-1.289-19.406 15.164-2.24v-.563l4.305.004 16.114 2.325.296 17.917-5.018 4.967-25.321.019-2.189-.8z"/><path class="cls-1" d="M73.03 40.061l.027-6.509H40.251l7.065 11.814.644.08.377.534v.51l.455.081.4.562v.481l.455.081s.455.484.455.509v1.1a7.708 7.708 0 0 0 1.88 1.256c.615.242.7 1.232 1.043 1.769.486.75 1.129 1.071 1 1.5-.322 1.154-1.5 3.083-2.6 3.191h-4.341l.018 1.762 6.84.04z"/><path class="cls-4" d="M36.028 33.518H19.317l-.127 21.135 3.5 4.122h3.753c-.447-.742-.947-1.585-1.1-1.842h-2.118c0-5.253 1.791-8.176 3.909-8.741.293-.053.162-1.5-.215-1.93a10.089 10.089 0 0 1-1.236-.027c-.266-.079-.078-.346-.078-.346l.99-2.146-.133-.589h-3.673c-.053 0 3.027-2.12 3.027-2.12.158-5.574 5.868-6.006 9.326-3.7 2.037 1.367 2.2 4.046 2.041 5.921-.027.11-.537.03-.537.03s-.349 2.035.564 2.035h4.022a6.184 6.184 0 0 1 3.216 1.045l.4-1.395zM58.834 59.475h-.6v-.218H59.7v.218h-.608v1.768h-.258zM61.591 60.371c-.015-.277-.033-.61-.03-.858h-.009c-.068.233-.15.481-.25.754l-.351.964h-.195l-.322-.946a9.443 9.443 0 0 1-.23-.773H60.2c-.005.248-.02.581-.038.878l-.053.852h-.244L60 59.257h.327l.339.96c.082.245.15.463.2.669h.009c.05-.2.121-.418.209-.669l.354-.96h.327l.124 1.986h-.251z"/></g></g></svg>