<svg xmlns="http://www.w3.org/2000/svg" viewBox="0 0 153.315 82.556"><defs><style>.cls-1{fill:#11274a}</style></defs><g id="Layer_2" data-name="Layer 2"><g id="Layer_1-2" data-name="Layer 1"><path class="cls-1" d="M132.5 0H0v59.829l22.726 22.727h130.589V20.812zM41.855 42.867H29.984v27.717l-16.2-16.2v-42.55h16.2v14.83h11.871zm31.728 29.19a23.719 23.719 0 0 1-13.956-4.518v3.046H45.895V11.834H61.48V27.69a23.834 23.834 0 1 1 12.1 44.367zm67.761-16.777c0 9.493-7.814 15.3-19.954 15.3h-11.254L98.2 58.638h22.045c2.712 0 3.875-.71 3.875-1.937v-.129c0-1.292-1.42-2-6.264-2.97-10.139-2.067-19.05-4.973-19.05-14.53v-.129c0-8.589 6.716-15.241 19.18-15.241h8.575l11.852 11.947h-19.09c-2.26 0-3.294.775-3.294 1.873v.129c0 1.227 1.227 2 6.006 2.906 11.56 2.131 19.309 5.49 19.309 14.595z"/><circle class="cls-1" cx="73.583" cy="48.222" r="8.278"/></g></g></svg>